<mxfile host="Electron" agent="Mozilla/5.0 (Windows NT 10.0; Win64; x64) AppleWebKit/537.36 (KHTML, like Gecko) draw.io/25.0.2 Chrome/128.0.6613.186 Electron/32.2.5 Safari/537.36" version="25.0.2">
  <diagram name="Страница — 1" id="DBTxhnqVq19naVQ_tsHX">
    <mxGraphModel dx="1299" dy="918" grid="1" gridSize="10" guides="1" tooltips="1" connect="1" arrows="1" fold="1" page="1" pageScale="1" pageWidth="827" pageHeight="1169" math="0" shadow="0">
      <root>
        <mxCell id="0" />
        <mxCell id="1" parent="0" />
        <mxCell id="2qGSd4Gcb8cHpoO5zFXZ-1" value="клиент" style="rounded=1;whiteSpace=wrap;html=1;" vertex="1" parent="1">
          <mxGeometry x="130" y="170" width="100" height="50" as="geometry" />
        </mxCell>
        <mxCell id="2qGSd4Gcb8cHpoO5zFXZ-2" value="заказ" style="rounded=1;whiteSpace=wrap;html=1;" vertex="1" parent="1">
          <mxGeometry x="360" y="165" width="110" height="50" as="geometry" />
        </mxCell>
        <mxCell id="2qGSd4Gcb8cHpoO5zFXZ-3" value="автомобиль" style="rounded=1;whiteSpace=wrap;html=1;" vertex="1" parent="1">
          <mxGeometry x="600" y="160" width="110" height="55" as="geometry" />
        </mxCell>
        <mxCell id="2qGSd4Gcb8cHpoO5zFXZ-4" value="" style="endArrow=none;dashed=1;html=1;dashPattern=1 3;strokeWidth=2;rounded=0;entryX=0.5;entryY=1;entryDx=0;entryDy=0;" edge="1" parent="1" source="2qGSd4Gcb8cHpoO5zFXZ-7" target="2qGSd4Gcb8cHpoO5zFXZ-1">
          <mxGeometry width="50" height="50" relative="1" as="geometry">
            <mxPoint x="180" y="880" as="sourcePoint" />
            <mxPoint x="450" y="390" as="targetPoint" />
          </mxGeometry>
        </mxCell>
        <mxCell id="2qGSd4Gcb8cHpoO5zFXZ-5" value="" style="endArrow=none;dashed=1;html=1;dashPattern=1 3;strokeWidth=2;rounded=0;entryX=0.5;entryY=1;entryDx=0;entryDy=0;" edge="1" parent="1" source="2qGSd4Gcb8cHpoO5zFXZ-11" target="2qGSd4Gcb8cHpoO5zFXZ-2">
          <mxGeometry width="50" height="50" relative="1" as="geometry">
            <mxPoint x="420" y="872.5" as="sourcePoint" />
            <mxPoint x="500" y="382.5" as="targetPoint" />
          </mxGeometry>
        </mxCell>
        <mxCell id="2qGSd4Gcb8cHpoO5zFXZ-6" value="" style="endArrow=none;dashed=1;html=1;dashPattern=1 3;strokeWidth=2;rounded=0;entryX=0.5;entryY=1;entryDx=0;entryDy=0;" edge="1" parent="1" source="2qGSd4Gcb8cHpoO5zFXZ-13" target="2qGSd4Gcb8cHpoO5zFXZ-3">
          <mxGeometry width="50" height="50" relative="1" as="geometry">
            <mxPoint x="660" y="872.5" as="sourcePoint" />
            <mxPoint x="550" y="382.5" as="targetPoint" />
          </mxGeometry>
        </mxCell>
        <mxCell id="2qGSd4Gcb8cHpoO5zFXZ-8" value="" style="endArrow=none;dashed=1;html=1;dashPattern=1 3;strokeWidth=2;rounded=0;entryX=0.5;entryY=1;entryDx=0;entryDy=0;" edge="1" parent="1" target="2qGSd4Gcb8cHpoO5zFXZ-7">
          <mxGeometry width="50" height="50" relative="1" as="geometry">
            <mxPoint x="180" y="740" as="sourcePoint" />
            <mxPoint x="180" y="220" as="targetPoint" />
          </mxGeometry>
        </mxCell>
        <mxCell id="2qGSd4Gcb8cHpoO5zFXZ-7" value="" style="html=1;points=[[0,0,0,0,5],[0,1,0,0,-5],[1,0,0,0,5],[1,1,0,0,-5]];perimeter=orthogonalPerimeter;outlineConnect=0;targetShapes=umlLifeline;portConstraint=eastwest;newEdgeStyle={&quot;curved&quot;:0,&quot;rounded&quot;:0};" vertex="1" parent="1">
          <mxGeometry x="175" y="260" width="10" height="420" as="geometry" />
        </mxCell>
        <mxCell id="2qGSd4Gcb8cHpoO5zFXZ-9" value="" style="endArrow=classic;html=1;rounded=0;" edge="1" parent="1">
          <mxGeometry width="50" height="50" relative="1" as="geometry">
            <mxPoint x="193" y="310" as="sourcePoint" />
            <mxPoint x="413" y="310" as="targetPoint" />
          </mxGeometry>
        </mxCell>
        <mxCell id="2qGSd4Gcb8cHpoO5zFXZ-10" value="заполняет форму заказа" style="text;html=1;align=center;verticalAlign=middle;resizable=0;points=[];autosize=1;strokeColor=none;fillColor=none;" vertex="1" parent="1">
          <mxGeometry x="200" y="280" width="160" height="30" as="geometry" />
        </mxCell>
        <mxCell id="2qGSd4Gcb8cHpoO5zFXZ-12" value="" style="endArrow=none;dashed=1;html=1;dashPattern=1 3;strokeWidth=2;rounded=0;entryX=0.5;entryY=1;entryDx=0;entryDy=0;" edge="1" parent="1" target="2qGSd4Gcb8cHpoO5zFXZ-11">
          <mxGeometry width="50" height="50" relative="1" as="geometry">
            <mxPoint x="415" y="730" as="sourcePoint" />
            <mxPoint x="415" y="215" as="targetPoint" />
          </mxGeometry>
        </mxCell>
        <mxCell id="2qGSd4Gcb8cHpoO5zFXZ-11" value="" style="html=1;points=[[0,0,0,0,5],[0,1,0,0,-5],[1,0,0,0,5],[1,1,0,0,-5]];perimeter=orthogonalPerimeter;outlineConnect=0;targetShapes=umlLifeline;portConstraint=eastwest;newEdgeStyle={&quot;curved&quot;:0,&quot;rounded&quot;:0};" vertex="1" parent="1">
          <mxGeometry x="410" y="290" width="10" height="340" as="geometry" />
        </mxCell>
        <mxCell id="2qGSd4Gcb8cHpoO5zFXZ-14" value="" style="endArrow=none;dashed=1;html=1;dashPattern=1 3;strokeWidth=2;rounded=0;entryX=0.5;entryY=1;entryDx=0;entryDy=0;" edge="1" parent="1" target="2qGSd4Gcb8cHpoO5zFXZ-13">
          <mxGeometry width="50" height="50" relative="1" as="geometry">
            <mxPoint x="660" y="720" as="sourcePoint" />
            <mxPoint x="655" y="215" as="targetPoint" />
          </mxGeometry>
        </mxCell>
        <mxCell id="2qGSd4Gcb8cHpoO5zFXZ-13" value="" style="html=1;points=[[0,0,0,0,5],[0,1,0,0,-5],[1,0,0,0,5],[1,1,0,0,-5]];perimeter=orthogonalPerimeter;outlineConnect=0;targetShapes=umlLifeline;portConstraint=eastwest;newEdgeStyle={&quot;curved&quot;:0,&quot;rounded&quot;:0};" vertex="1" parent="1">
          <mxGeometry x="650" y="320" width="10" height="170" as="geometry" />
        </mxCell>
        <mxCell id="2qGSd4Gcb8cHpoO5zFXZ-15" value="" style="endArrow=classic;html=1;rounded=0;exitX=1;exitY=0.207;exitDx=0;exitDy=0;exitPerimeter=0;" edge="1" parent="1" source="2qGSd4Gcb8cHpoO5zFXZ-11" target="2qGSd4Gcb8cHpoO5zFXZ-13">
          <mxGeometry width="50" height="50" relative="1" as="geometry">
            <mxPoint x="430" y="350" as="sourcePoint" />
            <mxPoint x="410" y="440" as="targetPoint" />
          </mxGeometry>
        </mxCell>
        <mxCell id="2qGSd4Gcb8cHpoO5zFXZ-16" value="&lt;font style=&quot;font-size: 16px;&quot;&gt;проверить доступность авто&lt;/font&gt;" style="text;html=1;align=center;verticalAlign=middle;resizable=0;points=[];autosize=1;strokeColor=none;fillColor=none;" vertex="1" parent="1">
          <mxGeometry x="410" y="320" width="230" height="30" as="geometry" />
        </mxCell>
        <mxCell id="2qGSd4Gcb8cHpoO5zFXZ-17" value="" style="endArrow=classic;html=1;rounded=0;" edge="1" parent="1" target="2qGSd4Gcb8cHpoO5zFXZ-11">
          <mxGeometry width="50" height="50" relative="1" as="geometry">
            <mxPoint x="650" y="420" as="sourcePoint" />
            <mxPoint x="429.9999999999998" y="420" as="targetPoint" />
          </mxGeometry>
        </mxCell>
        <mxCell id="2qGSd4Gcb8cHpoO5zFXZ-18" value="&lt;font style=&quot;font-size: 14px;&quot;&gt;авто доступен&lt;/font&gt;" style="text;html=1;align=center;verticalAlign=middle;resizable=0;points=[];autosize=1;strokeColor=none;fillColor=none;" vertex="1" parent="1">
          <mxGeometry x="465" y="388" width="120" height="30" as="geometry" />
        </mxCell>
        <mxCell id="2qGSd4Gcb8cHpoO5zFXZ-19" value="" style="endArrow=classic;html=1;rounded=0;" edge="1" parent="1" target="2qGSd4Gcb8cHpoO5zFXZ-7">
          <mxGeometry width="50" height="50" relative="1" as="geometry">
            <mxPoint x="400" y="460" as="sourcePoint" />
            <mxPoint x="410" y="520" as="targetPoint" />
          </mxGeometry>
        </mxCell>
        <mxCell id="2qGSd4Gcb8cHpoO5zFXZ-20" value="&lt;font style=&quot;font-size: 13px;&quot;&gt;заказ оформлен&lt;/font&gt;" style="text;html=1;align=center;verticalAlign=middle;resizable=0;points=[];autosize=1;strokeColor=none;fillColor=none;" vertex="1" parent="1">
          <mxGeometry x="220" y="428" width="120" height="30" as="geometry" />
        </mxCell>
        <mxCell id="2qGSd4Gcb8cHpoO5zFXZ-21" value="" style="endArrow=classic;html=1;rounded=0;" edge="1" parent="1" source="2qGSd4Gcb8cHpoO5zFXZ-7">
          <mxGeometry width="50" height="50" relative="1" as="geometry">
            <mxPoint x="360" y="570" as="sourcePoint" />
            <mxPoint x="410" y="520" as="targetPoint" />
          </mxGeometry>
        </mxCell>
        <mxCell id="2qGSd4Gcb8cHpoO5zFXZ-22" value="&lt;font style=&quot;font-size: 13px;&quot;&gt;оплачивает заказ&lt;/font&gt;" style="text;html=1;align=center;verticalAlign=middle;resizable=0;points=[];autosize=1;strokeColor=none;fillColor=none;" vertex="1" parent="1">
          <mxGeometry x="225" y="488" width="130" height="30" as="geometry" />
        </mxCell>
        <mxCell id="2qGSd4Gcb8cHpoO5zFXZ-23" value="" style="endArrow=classic;html=1;rounded=0;exitX=0;exitY=1;exitDx=0;exitDy=-5;exitPerimeter=0;dashed=1;dashPattern=8 8;" edge="1" parent="1">
          <mxGeometry width="50" height="50" relative="1" as="geometry">
            <mxPoint x="409.9999999999998" y="610" as="sourcePoint" />
            <mxPoint x="184.99999999999977" y="610" as="targetPoint" />
          </mxGeometry>
        </mxCell>
        <mxCell id="2qGSd4Gcb8cHpoO5zFXZ-24" value="&lt;font style=&quot;font-size: 13px;&quot;&gt;получает автомобиль&lt;/font&gt;" style="text;html=1;align=center;verticalAlign=middle;resizable=0;points=[];autosize=1;strokeColor=none;fillColor=none;" vertex="1" parent="1">
          <mxGeometry x="215" y="570" width="150" height="30" as="geometry" />
        </mxCell>
      </root>
    </mxGraphModel>
  </diagram>
</mxfile>
